<?xml version="1.0" encoding="UTF-8"?>
<svg id="Calque_2" data-name="Calque 2" xmlns="http://www.w3.org/2000/svg" xmlns:xlink="http://www.w3.org/1999/xlink" viewBox="0 0 122.88 122.88">
  <defs>
    <style>
      .cls-1 {
        fill: url(#Dégradé_sans_nom_14);
      }

      .cls-2 {
        fill: url(#Dégradé_sans_nom_329);
      }

      .cls-3 {
        fill: none;
      }

      .cls-4 {
        fill: url(#Dégradé_sans_nom_5208);
      }
    </style>
    <linearGradient id="Dégradé_sans_nom_329" data-name="Dégradé sans nom 329" x1="104.1" y1="73.87" x2="86.51" y2="104.34" gradientUnits="userSpaceOnUse">
      <stop offset="0" stop-color="#c2211b"/>
      <stop offset=".14" stop-color="#ee5223"/>
      <stop offset=".38" stop-color="#c83215"/>
      <stop offset=".64" stop-color="#a71709"/>
      <stop offset=".86" stop-color="#920602"/>
      <stop offset="1" stop-color="#8b0000"/>
    </linearGradient>
    <linearGradient id="Dégradé_sans_nom_5208" data-name="Dégradé sans nom 5208" x1="20.66" y1="114.33" x2="63.21" y2="-2.64" gradientUnits="userSpaceOnUse">
      <stop offset=".08" stop-color="#c2001b"/>
      <stop offset=".22" stop-color="#c3021b"/>
      <stop offset=".32" stop-color="#c80c1c"/>
      <stop offset=".4" stop-color="#d01b1d"/>
      <stop offset=".48" stop-color="#dc311f"/>
      <stop offset=".55" stop-color="#eb4e22"/>
      <stop offset=".56" stop-color="#ee5223"/>
      <stop offset=".68" stop-color="#c83215"/>
      <stop offset=".82" stop-color="#a71709"/>
      <stop offset=".93" stop-color="#920602"/>
      <stop offset="1" stop-color="#8b0000"/>
    </linearGradient>
    <linearGradient id="Dégradé_sans_nom_14" data-name="Dégradé sans nom 14" x1="97.59" y1="19.7" x2="54.61" y2="109.85" gradientUnits="userSpaceOnUse">
      <stop offset=".08" stop-color="#c2001b"/>
      <stop offset=".22" stop-color="#c3021b"/>
      <stop offset=".32" stop-color="#c80c1c"/>
      <stop offset=".4" stop-color="#d01b1d"/>
      <stop offset=".48" stop-color="#dc311f"/>
      <stop offset=".55" stop-color="#eb4e22"/>
      <stop offset=".56" stop-color="#ee5223"/>
      <stop offset=".68" stop-color="#c83215"/>
      <stop offset=".82" stop-color="#a71709"/>
      <stop offset=".93" stop-color="#920602"/>
      <stop offset="1" stop-color="#8b0000"/>
    </linearGradient>
  </defs>
  <g id="Calque_12" data-name="Calque 12">
    <g>
      <path class="cls-3" d="M89.55,89.37c.55-.01,2.47.11,2.85-.05.27-.12.26-.84.02-1.04-.47-.38-.77-.77-.77-1.33v-3.4c-.01-1.03,1.37-.59.84-2.61-4.25.46-7.01,4.41-6.4,8.48,1.15-.02,2.31-.03,3.46-.05Z"/>
      <path class="cls-3" d="M94.09,89.15c.05.15.34.24.57.24h5.83c-.04-.54.02-1.05.02-1.56h.01v-.03c0-.28,0-.56-.05-.84-.52-3.23-3.14-5.61-6.35-6.02h-.02s-.01.04-.01.06c-.4,2.2.82,1.26.81,2.56v3.66c-.01,1.07-1.23.73-.81,1.93Z"/>
      <path class="cls-3" d="M100.5,91.17c-4.83.04-9.66.07-14.49.11.13,2.24-.14,4.35.09,6.47.5,4.62,4.89,7.47,9.31,6.17,2.61-.76,4.76-2.99,5.02-5.87.22-2.38-.02-4.57.07-6.88Z"/>
      <path class="cls-2" d="M99.89,74.16l2.28,3.52c-.66.4-1.13.9-1.81,1.21-.18-.28-.35-.56-.52-.83-.25-.39-.44-.68-.5-.77-.26-.4-.66-1.02-1.29-2.02-.56.78-1.13,1.57-1.69,2.35-.72-3.09-1.43-6.19-2.15-9.28l4.18,2.32,4.21,2.34-2.71,1.16ZM103,97.86c-.06,2.39-1.35,4.68-3.01,6.26-2.34,2.21-5.22,2.91-8.31,2.49-2.37-.33-4.6-1.74-6.05-3.61-1.04-1.34-1.97-3.11-1.98-4.88l-.02-5.74-.02-5.79c.83-4.55,4.4-7.77,8.98-8.16-.21-1.43.5-2.55,1.55-3.16.67,2.04-.46,1.63.04,3.15.41.03.82.1,1.23.19,4.03.91,7.4,4.47,7.58,8.61.15,3.59.11,7.03,0,10.64ZM94.9,83.56v3.66c-.01,1.07-1.23.73-.81,1.93.05.15.34.24.57.24h5.83c-.04-.54.02-1.05.02-1.56h.01v-.03c0-.28,0-.56-.05-.84-.52-3.23-3.14-5.61-6.35-6.02h-.02s-.01.04-.01.06c-.4,2.2.82,1.26.81,2.56ZM86.09,89.42c1.15-.02,2.31-.03,3.46-.05.55-.01,2.47.11,2.85-.05.27-.12.26-.84.02-1.04-.47-.38-.77-.77-.77-1.33v-3.4c-.01-1.03,1.37-.59.84-2.61-4.25.46-7.01,4.41-6.4,8.48ZM100.5,91.17c-4.83.04-9.66.07-14.49.11.13,2.24-.14,4.35.09,6.47.5,4.62,4.89,7.47,9.31,6.17,2.61-.76,4.76-2.99,5.02-5.87.22-2.38-.02-4.57.07-6.88Z"/>
    </g>
    <g id="Obliance">
      <path id="Obliance-2" data-name="Obliance" class="cls-4" d="M23.2,60.34c-.02.36-.03.73-.03,1.1,0,1.65.1,3.27.31,4.86,0,.02,0,.03,0,.05v.04c2.23,24.59,17.01,45.57,37.87,56.48-15.23-.02-29.16-5.58-39.89-14.78C8.19,96.72-.17,79.76,0,60.84.3,29.35,24.71,3.31,55.45.3h0c1.98-.21,3.99-.3,6.01-.3,9.64,0,18.77,2.23,26.89,6.19-3.38-.85-21.87-5.11-39.49,6.12-12.5,7.97-16.61,22.22-18.35,26.59-4.42,6.03-7.1,13.4-7.32,21.39v.04Z"/>
    </g>
    <path class="cls-1" d="M120.48,44.41c-1.39-4.82-3.56-8.71-5.48-11.73-.03-.05-.06-.1-.1-.15-1.05-1.59-2.39-3.03-3.65-4.46-3.34-3.83-8.71-9.1-17.36-12.28-7.31-2.67-13.79-3.01-17.98-2.88h-.01c-.44.03-.89.07-1.33.12-.08.01-.16.02-.24.03-.39.05-.79.1-1.18.16-1.07.17-2.11.38-3.12.62-.4.09-.8.19-1.2.3-.54.15-1.09.3-1.61.46-.04,0-.06.02-.1.04-.41.13-.82.27-1.21.4-.19.06-.38.13-.56.2-.28.1-.54.2-.81.3-.22.09-.44.18-.65.26-.41.17-.82.34-1.22.51-.42.19-.83.39-1.24.58-.4.2-.8.4-1.19.6-.26.13-.52.26-.77.39-.67.36-1.32.73-1.92,1.09-1.22.73-2.31,1.47-3.28,2.15-.07.05-.14.1-.21.16-.58.42-1.15.84-1.7,1.28-.28.22-.55.44-.82.67-.27.22-.54.46-.8.69-.45.4-.9.81-1.33,1.24.16-.05.33-.1.51-.15.16-.05.33-.11.5-.16,2.44-.72,4.96-1.21,7.57-1.44,1.11-.09,2.23-.15,3.36-.15,5.12,0,10.01,1.01,14.47,2.83.69.29,1.36.58,2.02.91.33.15.67.32,1,.49,9.22,4.76,16.24,13.17,19.18,23.32.02.06.04.12.05.18.59,2.05,1,4.18,1.23,6.37,0,.03,0,.05,0,.08.2,1.85.26,3.73.18,5.65-.08,1.98-.32,3.92-.71,5.81l4.3,2.37c.8.45,1.37,1.16,1.21,2.11-.13.79-.88,1.36-1.79,1.53.71,1.43,1.71,1.86,1.32,3.42-.29,1.13-1.81,1.41-1.54,1.76.57.74,1.06,1.45,1.6,2.3,3.67-6.29,5.53-13.27,5.31-20.45-1.14-.43-1.69-1.39-1.45-2.51.22-.99,1.08-1.74,2.19-1.72,1.02.01,1.93.82,2.09,1.83.15,1.02-.42,2.01-1.43,2.39l-.38,5.19c-.41,5.58-2.8,11.73-5.62,16.56.23,1.35.77,2.67.77,4.09v8.46s3.68,2.98,3.68,2.98c.1.09.34.39.53.42,8.33-10.48,13.31-23.75,13.31-38.19,0-8.69-2.4-17.03-2.4-17.03ZM109.88,58.95c-.51,0-.92.41-.92.92s.41.91.92.91.91-.41.91-.91-.41-.92-.91-.92ZM101.64,105.67c-1.85,1.66-4.07,2.95-6.6,3.2-.63.06-1.28.16-1.9.11l-1.52-.11c-2.85-.2-5.34-1.76-7.31-3.79-4.04,2.35-8.12,4.06-12.65,4.94-.19,1.09-1.01,1.86-2.09,1.88-.72.02-1.26-.08-1.75-.54-.48-.45-.62-1.07-.6-1.8.04-1.2,1.04-1.94,2.2-1.97.83-.02,1.38.3,1.89.92.26.29.89.02,1.26-.06,3.91-.8,7.6-2.15,11.02-4.37-1.32-1.85-2.25-3.88-2.3-6.12l-.1-3.96c-5.32,3.28-11.5,5.28-18.09,5.58-.1,0-.21,0-.31.01-.79.03-1.57.04-2.35.02-.67,0-1.35-.06-2.03-.11-.03,0-.07,0-.1-.01-.34-.03-.69-.05-1.03-.08-.2-.02-.41-.05-.61-.08-.08-.01-.15-.02-.23-.03-17.14-2.2-30.74-15.77-32.95-32.9.03.29.05.58.09.87.1.99.22,1.97.37,2.94,0,.02,0,.04.01.06.12.9.27,1.8.44,2.68.09.54.2,1.07.32,1.61.09.43.18.85.28,1.27.09.42.19.85.3,1.27.05.21.11.42.16.63.05.21.1.41.17.62.15.58.31,1.14.48,1.71h0c.08.28.16.55.25.82.01.08.04.16.07.23.07.25.15.5.23.74.08.28.18.55.28.82.15.47.31.93.48,1.39.19.55.4,1.09.61,1.62.01.03.02.05.03.08.26.67.53,1.33.81,1.98,0,.04.03.08.05.12.2.49.42.98.65,1.46.41.92.85,1.83,1.31,2.73.35.69.71,1.38,1.09,2.05.11.2.23.41.34.61.33.6.68,1.2,1.04,1.79.29.48.58.96.88,1.44,2.39,3.75,5.11,7.26,8.15,10.49.29.32.58.63.9.94.15.17.32.35.5.52.51.52,1.03,1.03,1.56,1.53,1.54,1.47,3.16,2.87,4.83,4.19.15.12.31.24.47.37,1.04.81,2.11,1.6,3.2,2.35.45.32.91.63,1.37.92.24.17.48.32.73.48.34.22.68.44,1.03.64,1.43.89,2.89,1.72,4.38,2.5,0,.01.01.01.01.01h.49c1.83-.02,3.64-.11,5.42-.28.17-.02.35-.04.52-.05,7.21-.73,14.05-2.72,20.29-5.77.47-.22.93-.45,1.39-.69,1.21-.62,2.39-1.28,3.55-1.96.62-.37,1.24-.76,1.85-1.15.31-.19.62-.39.92-.6,2.46-1.66,4.79-3.49,6.98-5.48-.31-.52-.72-.83-1.13-1.23ZM69.94,109c-.54-.31-1.21-.11-1.38.38-.16.49,0,1.05.55,1.32.43.21.93-.12,1.1-.51.16-.35.15-.95-.27-1.19Z"/>
  </g>
</svg>